<mxfile host="app.diagrams.net" modified="2023-09-30T05:36:47.105Z" agent="Mozilla/5.0 (Windows NT 10.0; Win64; x64) AppleWebKit/537.36 (KHTML, like Gecko) Chrome/117.0.0.0 Safari/537.36" version="22.0.0" etag="KEMK_gjGk7CbTCRglQX3" type="github">
  <diagram name="Page-1" id="K1gHCc_0VspMWGYEd5Bs">
    <mxGraphModel>
      <root>
        <mxCell id="0" />
        <mxCell id="1" parent="0" />
      </root>
    </mxGraphModel>
  </diagram>
</mxfile>
